<svg xmlns="http://www.w3.org/2000/svg" xmlns:xlink="http://www.w3.org/1999/xlink" version="1.1" width="1000" height="1000" viewBox="0 0 1000 1000" xml:space="preserve">
<desc>Created with Fabric.js 3.5.0</desc>
<defs>
</defs>
<rect x="0" y="0" width="100%" height="100%" fill="#000000"/>
<g transform="matrix(0.8684 0 0 0.8684 475.5113 576.3516)" id="451422">
<g style="" vector-effect="non-scaling-stroke">
		<g transform="matrix(3.125 0 0 3.125 1.3054 -129.5297)" id="SVGRepo_iconCarrier">
<path style="stroke: rgb(35,147,250); stroke-width: 4.608; stroke-dasharray: none; stroke-linecap: butt; stroke-dashoffset: 0; stroke-linejoin: miter; stroke-miterlimit: 4; is-custom-font: none; font-file-url: none; fill: rgb(1,1,1); fill-rule: nonzero; opacity: 1;" transform=" translate(-128.4177, -86.5505)" d="M 128.253 56.864 c 15.186 0 27.432 -12.247 27.432 -27.432 S 143.536 2 128.253 2 c -15.186 0 -27.432 12.247 -27.432 27.432 C 100.918 44.716 113.165 56.864 128.253 56.864 z M 64.571 136.32 h -49.28 c -15.969 0 -16.851 -24.395 0.294 -24.395 H 58.3 l 24.493 -36.054 c 7.25 -9.895 15.48 -14.598 27.138 -14.598 h 36.544 c 11.659 0 19.888 4.311 27.138 14.598 l 24.591 36.054 h 43.01 c 17.243 0 16.165 24.395 0.588 24.395 h -49.28 c -3.919 0 -8.622 -1.372 -11.365 -5.584 l -18.811 -26.844 l -0.098 67.209 H 94.844 l -0.098 -67.209 l -18.811 26.844 C 73.192 134.85 68.49 136.32 64.571 136.32 z" stroke-linecap="round"/>
</g>
		<g transform="matrix(3.125 0 0 3.125 -303.125 -179.6875)" id="SVGRepo_iconCarrier">
<path style="stroke: rgb(35,147,250); stroke-width: 4.608; stroke-dasharray: none; stroke-linecap: butt; stroke-dashoffset: 0; stroke-linejoin: miter; stroke-miterlimit: 4; is-custom-font: none; font-file-url: none; fill: rgb(35,147,250); fill-rule: nonzero; opacity: 1;" transform=" translate(-31, -70.5)" d="M 52.75 67.117 v 29.324 H 2 v -50.75 h 41.538 l -7.27 7.25 H 9.25 v 36.25 H 45.5 V 74.346 L 52.75 67.117 z M 60 49.693 l -5.119 -5.134 L 27.407 71.946 l -8.485 -8.485 l -5.126 5.126 L 27.4 82.192 L 60 49.693 z" stroke-linecap="round"/>
</g>
		<g transform="matrix(3.125 0 0 3.125 297.6563 -179.6875)" id="SVGRepo_iconCarrier">
<path style="stroke: rgb(35,147,250); stroke-width: 4.608; stroke-dasharray: none; stroke-linecap: butt; stroke-dashoffset: 0; stroke-linejoin: miter; stroke-miterlimit: 4; is-custom-font: none; font-file-url: none; fill: rgb(1,1,1); fill-rule: nonzero; opacity: 1;" transform=" translate(-223.25, -70.5)" d="M 254 51.281 l -4.53 19.073 c -0.827 3.48 -3.902 5.911 -7.479 5.911 h -27.497 l 1.082 4.509 c 0.415 1.73 1.948 2.939 3.727 2.939 h 27.25 v 3.844 h -27.25 c -3.564 0 -6.633 -2.42 -7.465 -5.885 l -8.433 -35.139 c -0.415 -1.73 -1.948 -2.939 -3.727 -2.939 H 192.5 V 39.75 h 7.178 c 3.563 0 6.633 2.42 7.465 5.886 l 1.355 5.646 H 254 z M 215.238 95.725 c 0 3.052 2.474 5.525 5.525 5.525 s 5.525 -2.474 5.525 -5.525 s -2.474 -5.525 -5.525 -5.525 S 215.238 92.673 215.238 95.725 z M 235.418 95.725 c 0 3.052 2.474 5.525 5.525 5.525 s 5.525 -2.474 5.525 -5.525 s -2.474 -5.525 -5.525 -5.525 S 235.418 92.673 235.418 95.725 z" stroke-linecap="round"/>
</g>
</g>
</g>
</svg>